<svg width="217" height="67" viewBox="0 0 217 67" fill="none" xmlns="http://www.w3.org/2000/svg">
<g clip-path="url(#clip0_864_1405)">
<path d="M12.5 33.7102C18.73 33.7102 22.93 30.7103 23.92 26.0903L17.46 25.6702C16.75 27.5702 14.95 28.5602 12.62 28.5602C9.13 28.5602 6.91 26.2702 6.91 22.5602V22.5402H24.07V20.6402C24.07 12.1702 18.89 7.99025 12.23 7.99025C4.81 7.98025 0 13.1902 0 20.8802C0 28.5702 4.74 33.7102 12.5 33.7102ZM6.91 18.2502C7.06 15.4102 9.24 13.1402 12.34 13.1402C15.44 13.1402 17.47 15.2802 17.49 18.2502H6.91Z" fill="#367CC1"/>
<path d="M80.83 33.71C84.55 33.71 86.96 32.1 88.19 29.78H88.39V33.71H95.01V16.43C95.01 10.49 89.93 7.99 84.32 7.99C78.29 7.99 74.32 10.85 73.36 15.39L79.82 15.91C80.3 14.25 81.79 13.04 84.29 13.04C86.67 13.04 88.03 14.22 88.03 16.27V16.37C88.03 17.98 86.31 18.19 81.93 18.61C76.95 19.06 72.47 20.72 72.47 26.29C72.47 31.22 76.03 33.72 80.83 33.72V33.71ZM92.56 0H76.6V3.75H92.56V0ZM82.83 28.94C80.68 28.94 79.14 27.95 79.14 26.05C79.14 24.15 80.76 23.14 83.22 22.8C84.74 22.59 87.24 22.23 88.07 21.68V24.33C88.07 26.94 85.89 28.94 82.83 28.94Z" fill="#F09031"/>
<path d="M38.2099 33.64C43.5299 32.93 47.74 28.74 48.47 23.42V0H41.5299V12.49H41.32C40.3799 10.46 38.37 7.98 34.15 7.98C28.62 7.98 23.95 12.23 23.95 20.79C23.95 29.35 28.4299 33.62 34.1699 33.62V33.64H38.2099ZM31.08 20.76C31.08 16.45 32.92 13.48 36.38 13.48C39.84 13.48 41.68 16.32 41.68 20.76C41.68 25.2 39.74 28.12 36.38 28.12C33.02 28.12 31.08 25.1 31.08 20.76Z" fill="#367CC1"/>
<path d="M62.83 7.98C58.62 7.98 56.6 10.46 55.67 12.49H55.46V0H48.48V23.43C48.48 23.43 48.49 23.38 48.49 23.35C49.18 28.7 53.4 32.93 58.73 33.64H62.81C68.55 33.64 73.02 29.15 73.02 20.8C73.02 12.45 68.35 7.98 62.83 7.98ZM60.6 28.14C57.24 28.14 55.31 25.22 55.31 20.77C55.31 16.32 57.21 13.48 60.6 13.48C63.99 13.48 65.89 16.45 65.89 20.77C65.89 25.09 64.02 28.14 60.6 28.14Z" fill="#F09031"/>
<path d="M91.74 35.6796C90.73 34.9896 89.58 34.4696 88.29 34.1396C86.99 33.8096 85.64 33.6396 84.23 33.6396C82.2 33.6396 80.42 33.9497 78.88 34.5597C77.34 35.1697 76.09 36.0396 75.12 37.1696C74.15 38.2996 73.5 39.6396 73.17 41.1796L79.68 41.7096C79.92 40.8696 80.42 40.1796 81.17 39.6196C81.92 39.0596 82.93 38.7796 84.19 38.7796C85.39 38.7796 86.32 39.0696 86.98 39.6396C87.64 40.2096 87.96 41.0196 87.96 42.0696V42.1696C87.96 42.7096 87.76 43.1196 87.35 43.3896C86.94 43.6696 86.29 43.8696 85.38 44.0096C84.48 44.1496 83.29 44.2896 81.81 44.4496C80.55 44.5696 79.36 44.7797 78.22 45.0797C77.08 45.3797 76.06 45.8197 75.17 46.3997C74.28 46.9797 73.57 47.7596 73.05 48.7096C72.53 49.6696 72.27 50.8496 72.27 52.2596C72.27 53.9396 72.64 55.3296 73.37 56.4496C74.1 57.5697 75.1 58.4096 76.37 58.9796C77.64 59.5496 79.08 59.8297 80.7 59.8297C81.96 59.8297 83.06 59.6597 84.02 59.3297C84.98 58.9897 85.8 58.5296 86.48 57.9196C87.16 57.3196 87.71 56.6197 88.12 55.8297H88.32V59.3496H95V42.2296C95 40.7196 94.71 39.4196 94.12 38.3396C93.54 37.2596 92.74 36.3596 91.73 35.6696L91.74 35.6796ZM88.01 50.2896C88.01 51.1796 87.78 51.9796 87.33 52.6896C86.88 53.3996 86.26 53.9496 85.46 54.3696C84.67 54.7796 83.75 54.9897 82.72 54.9897C81.69 54.9897 80.75 54.7397 80.05 54.2397C79.35 53.7397 79 53.0096 79 52.0496C79 51.3896 79.17 50.8396 79.51 50.3896C79.85 49.9396 80.33 49.5896 80.95 49.3196C81.57 49.0596 82.29 48.8597 83.12 48.7397C83.51 48.6897 83.94 48.6196 84.41 48.5496C84.88 48.4796 85.36 48.3996 85.83 48.2996C86.3 48.2096 86.73 48.0997 87.11 47.9897C87.49 47.8697 87.79 47.7496 88.01 47.5996V50.2896Z" fill="#F0F0F0"/>
<path d="M115.73 38.2398H115.51C115.2 37.5598 114.75 36.8598 114.16 36.1498C113.57 35.4398 112.8 34.8398 111.85 34.3698C110.9 33.8898 109.71 33.6498 108.29 33.6498C106.43 33.6498 104.72 34.1298 103.16 35.0998C101.6 36.0598 100.35 37.5098 99.42 39.4498C98.48 41.3798 98.01 43.8098 98.01 46.7098C98.01 49.6098 98.46 51.9298 99.37 53.8798C100.28 55.8198 101.51 57.2998 103.07 58.2898C104.63 59.2898 106.37 59.7898 108.3 59.7898C109.67 59.7898 110.83 59.5598 111.78 59.1098C112.73 58.6598 113.51 58.0898 114.11 57.3998C114.71 56.7098 115.18 56.0098 115.51 55.3098H115.81V59.3798H122.75V25.5098H115.73V38.2398ZM115.24 50.6198C114.82 51.7398 114.21 52.6198 113.42 53.2398C112.63 53.8598 111.67 54.1698 110.53 54.1698C109.39 54.1698 108.4 53.8498 107.61 53.2198C106.82 52.5898 106.22 51.6998 105.81 50.5798C105.4 49.4498 105.19 48.1498 105.19 46.6698C105.19 45.1898 105.39 43.9198 105.8 42.7998C106.21 41.6898 106.81 40.8198 107.6 40.1898C108.39 39.5598 109.37 39.2498 110.53 39.2498C111.69 39.2498 112.63 39.5498 113.42 40.1598C114.21 40.7698 114.82 41.6298 115.24 42.7398C115.66 43.8498 115.87 45.1598 115.87 46.6698C115.87 48.1798 115.66 49.4998 115.23 50.6198H115.24Z" fill="#F0F0F0"/>
<path d="M146.81 36.8496C145.72 35.7796 144.46 34.9796 143.01 34.4396C141.56 33.9096 140 33.6396 138.32 33.6396C135.83 33.6396 133.66 34.1896 131.82 35.2896C129.97 36.3896 128.54 37.9297 127.53 39.8997C126.52 41.8697 126.01 44.1596 126.01 46.7796C126.01 49.3996 126.52 51.7696 127.53 53.7296C128.54 55.6896 129.99 57.1996 131.87 58.2596C133.75 59.3196 135.99 59.8496 138.61 59.8496C140.7 59.8496 142.55 59.5296 144.16 58.8797C145.76 58.2397 147.07 57.3296 148.09 56.1696C149.11 55.0096 149.78 53.6397 150.11 52.0797L143.6 51.6497C143.36 52.2896 143.01 52.8296 142.54 53.2696C142.08 53.7097 141.52 54.0396 140.87 54.2596C140.22 54.4796 139.5 54.5896 138.72 54.5896C137.54 54.5896 136.52 54.3396 135.66 53.8496C134.8 53.3496 134.14 52.6496 133.67 51.7296C133.2 50.8196 132.97 49.7297 132.97 48.4697V48.4496H150.26V46.5196C150.26 44.3596 149.96 42.4696 149.35 40.8596C148.74 39.2496 147.9 37.8996 146.81 36.8396V36.8496ZM132.98 44.1096C133.02 43.1996 133.25 42.3596 133.67 41.6096C134.13 40.7896 134.77 40.1296 135.6 39.6396C136.42 39.1496 137.37 38.8997 138.43 38.8997C139.49 38.8997 140.36 39.1196 141.13 39.5696C141.91 40.0196 142.52 40.6296 142.96 41.4096C143.4 42.1896 143.62 43.0896 143.62 44.0996H132.98V44.1096Z" fill="#F0F0F0"/>
<path d="M182.36 33.6396C180.5 33.6396 178.89 34.0796 177.53 34.9496C176.17 35.8296 175.23 36.9896 174.71 38.4496H174.45C174.04 36.9696 173.23 35.7996 172 34.9396C170.78 34.0696 169.3 33.6396 167.55 33.6396C165.8 33.6396 164.35 34.0696 163.12 34.9296C161.89 35.7896 161 36.9596 160.48 38.4496H160.18V33.9697H153.47V59.3596H160.51V44.1196C160.51 43.1796 160.69 42.3696 161.06 41.6696C161.42 40.9696 161.92 40.4196 162.54 40.0296C163.16 39.6396 163.86 39.4396 164.65 39.4396C165.81 39.4396 166.74 39.8096 167.45 40.5496C168.16 41.2896 168.52 42.2796 168.52 43.5296V59.3596H175.35V43.8596C175.35 42.5396 175.71 41.4696 176.42 40.6596C177.14 39.8496 178.13 39.4396 179.41 39.4396C180.53 39.4396 181.47 39.7896 182.22 40.4996C182.97 41.2096 183.34 42.2596 183.34 43.6696V59.3596H190.36V42.2896C190.36 39.5396 189.62 37.4097 188.14 35.8997C186.66 34.3997 184.73 33.6396 182.36 33.6396Z" fill="#F0F0F0"/>
<path d="M65.66 50.0599C65.53 50.9499 65.25 51.7199 64.83 52.3499C64.41 52.9799 63.87 53.4699 63.23 53.7999C62.59 54.1299 61.86 54.2999 61.06 54.2999C59.97 54.2999 59.02 53.9999 58.2 53.4099C57.38 52.8199 56.75 51.9499 56.31 50.8199C55.86 49.6899 55.64 48.3099 55.64 46.6899C55.64 45.0699 55.87 43.7299 56.32 42.6099C56.77 41.4899 57.4 40.6299 58.21 40.0399C59.02 39.4499 59.97 39.1599 61.06 39.1599C62.35 39.1599 63.39 39.5499 64.19 40.3299C64.99 41.1099 65.48 42.1299 65.67 43.3999H72.31C72.21 41.4399 71.68 39.7299 70.71 38.2799C69.74 36.8299 68.42 35.6999 66.76 34.8899C65.1 34.0899 63.16 33.6799 60.94 33.6799H58.74C58.74 33.6799 58.75 33.6799 58.76 33.6799C53.41 34.3899 49.19 38.6199 48.49 43.9699C48.49 43.9399 48.48 43.9199 48.48 43.8899C47.75 38.5999 43.56 34.4099 38.27 33.6899C38.08 33.6899 37.89 33.6699 37.7 33.6699C35.67 33.6699 33.89 33.9799 32.35 34.5899C30.81 35.1999 29.56 36.0699 28.59 37.1999C27.62 38.3299 26.97 39.6699 26.64 41.2099L33.15 41.7399C33.39 40.8999 33.68 40.2299 34.52 39.8099C35.23 39.4599 35.83 39.2599 36.76 39.2799C37.69 39.2999 38.56 39.5599 39.23 40.0099C39.23 40.0099 40.59 40.9699 40.76 42.2199C40.78 42.4699 40.93 43.4199 40.42 43.6399C39.97 43.8299 39.76 43.9099 38.86 44.0399C37.96 44.1799 36.77 44.3199 35.29 44.4799C34.03 44.5999 32.84 44.8099 31.7 45.1099C30.56 45.4099 29.54 45.8499 28.65 46.4299C27.76 47.0099 27.05 47.7899 26.53 48.7399C26.01 49.6999 25.75 50.8799 25.75 52.2899C25.75 53.9699 26.12 55.3599 26.85 56.4799C27.58 57.5999 28.58 58.4399 29.85 59.0099C31.12 59.5799 32.56 59.8599 34.18 59.8599C35.44 59.8599 36.54 59.6899 37.5 59.3599C38.46 59.0199 39.28 58.5599 39.96 57.9499C40.64 57.3499 41.19 56.6499 41.6 55.8599H41.8V59.3799H48.48V46.7799C48.48 49.3499 48.98 51.6199 49.98 53.5899C50.98 55.5599 52.41 57.0999 54.28 58.2099C56.15 59.3199 58.38 59.8699 60.98 59.8699C63.24 59.8699 65.19 59.4599 66.85 58.6299C68.5 57.7999 69.8 56.6499 70.74 55.1799C71.68 53.7099 72.21 51.9999 72.32 50.0599H65.68H65.66ZM41.48 50.2899C41.48 51.1799 41.25 51.9799 40.8 52.6899C40.35 53.3999 39.73 53.9499 38.93 54.3699C38.14 54.7799 37.22 54.9899 36.19 54.9899C35.16 54.9899 34.22 54.7399 33.52 54.2399C32.82 53.7399 32.47 53.0099 32.47 52.0499C32.47 51.3899 32.64 50.8399 32.98 50.3899C33.32 49.9399 33.8 49.5899 34.42 49.3199C35.04 49.0599 35.76 48.8599 36.59 48.7399C36.98 48.6899 37.41 48.6199 37.88 48.5499C38.35 48.4799 38.83 48.3999 39.3 48.2999C39.77 48.2099 40.2 48.0999 40.58 47.9899C40.96 47.8799 41.26 47.7499 41.48 47.5999V50.2899Z" fill="#F0F0F0"/>
<path d="M209.52 33.6396L204.73 50.4596H204.47L199.73 33.6396H192.45L200.92 57.9296L200.51 58.9996C200.2 59.7896 199.8 60.3496 199.31 60.6896C198.82 61.0296 198.24 61.1697 197.57 61.1497C196.9 61.1297 196.16 60.9897 195.33 60.7397L193.74 65.9996C194.25 66.2096 194.89 66.3796 195.67 66.5196C196.45 66.6596 197.28 66.7297 198.17 66.7297C199.91 66.7297 201.4 66.4496 202.63 65.8997C203.86 65.3397 204.89 64.5597 205.7 63.5396C206.51 62.5196 207.15 61.3296 207.63 59.9596L216.86 33.6596H209.53L209.52 33.6396Z" fill="#F0F0F0"/>
<path d="M54.31 33.6498C51.27 34.0498 48.87 36.4598 48.48 39.4898C48.08 36.4498 45.67 34.0398 42.63 33.6498C45.67 33.2498 48.08 30.8498 48.48 27.7998C48.87 30.8398 51.27 33.2498 54.31 33.6498Z" fill="white"/>
</g>
<defs>
<clipPath id="clip0_864_1405">
<rect width="216.85" height="66.72" fill="white"/>
</clipPath>
</defs>
</svg>
